<svg xmlns="http://www.w3.org/2000/svg" enable-background="new 0 0 60 60" viewBox="0 0 60 60"><path fill="#D07C40" d="M44.5804749,26.2060261c1.5714073-0.553957,2.3967552-2.2766571,1.8427963-3.8483257
				c-0.5534363-1.5716686-2.2763977-2.3967552-3.8480644-1.8430576l-8.0657845,2.8415318h-9.0229225l-8.0657825-2.8415318
				c-1.571929-0.5536976-3.2946291,0.271389-3.8483257,1.8430576c-0.5536976,1.5716686,0.27139,3.2943687,1.8430576,3.8483257
				l6.0865097,1.9062862v9.887722l-6.503212,10.288372c-1.0982962,1.7380371-0.5802126,4.0367889,1.1575642,5.1350861
				c1.7375183,1.0985565,4.0365314,0.5802116,5.135088-1.1573067l5.2039719-8.2329292h7.0049191l5.2039757,8.2329292
				c1.0985565,1.7375183,3.3975677,2.2558632,5.1350861,1.1573067c1.7380371-1.0982971,2.2558594-3.397049,1.1575661-5.1350861
				l-6.5032158-10.288372v-9.8874607L44.5804749,26.2060261z"/><path fill="#F4B458" d="M38.6457939,37.2200928l0.1099854,0.1699829l6.5,10.289978
				c1.1100464,1.7700195,0.5900269,4.1000366-1.1799927,5.2200317c-1.7699585,1.1199951-4.0999756,0.5899658-5.2199707-1.1699829
				l-5.2999878-8.3700562h-7.1100483l-4.6900024,7.3900146l-0.1799927,0.2999878l-0.4299927,0.6800537
				c-1.1199951,1.7599487-3.4500122,2.289978-5.2199707,1.1699829c-1.7700195-1.1199951-2.2900391-3.4500122-1.1700439-5.2200317
				l0.4700317-0.7399902l0.2399902-0.3900146l5.8900146-9.3299561v-9.8200073l-6.1900024-2.1799927
				c-1.6000366-0.5599976-2.4400024-2.3099976-1.8699951-3.9100342c0.5599976-1.5999756,2.3200073-2.4400024,3.9199829-1.8800049
				l7.0100098,2.4800415c-1.9700317-1.6500244-3.2300415-4.1400146-3.2300415-6.9100332c0-4.9799805,4.0300293-9,9-9
				c4.9700336,0,9.0100117,4.0200195,9.0100117,9c0,2.7700186-1.2600098,5.2600088-3.2299805,6.9100332l5.8300171-2.0500488
				l0.2600098-0.0899658l0.1799927-0.0700073l0.6099854-0.2199707l0.1300049-0.0500488
				c1.5999756-0.5599976,3.3599854,0.2800293,3.9199829,1.8800049c0.5300293,1.5-0.1699829,3.1300049-1.5700073,3.7800293
				c-0.0299683,0.0199585-0.0799561,0.039978-0.1099854,0.039978c-0.0599976,0.0499878-0.1099854,0.0700073-0.1699829,0.0800171
				h-0.0100098l-0.0100098,0.0100098l-0.6599731,0.2399902l-5.5300293,1.9400024V37.2200928z"/><path fill="#BF392B" d="M32.8033752,18.2729626c0.5593643,0.1975746,0.8086739,0.8005047,0.5802917,1.3480091
					c-0.2586212,0.6199894-0.6791649,1.1529102-1.2127495,1.5531406c-0.6034775,0.446949-1.3521652,0.7151318-2.1678982,0.7151318
					c-0.804615,0-1.5533028-0.2569981-2.1455956-0.7040138c-0.5943699-0.4176369-1.0501862-1.0142803-1.3051929-1.7110577
					c-0.1706009-0.4661522,0.0909214-1.0023327,0.5574474-1.1719055
					C29.0094109,17.6117573,30.9037552,17.6019878,32.8033752,18.2729626z"/><circle cx="26.181" cy="12.715" r="1.472" fill="#BF713C"/><circle cx="33.815" cy="12.715" r="1.472" fill="#BF713C"/><path fill="#E2574D" d="M32.6178665,20.4812851c-0.1229057,0.2569981-0.2793694,0.4916916-0.4693184,0.7039452
			c-0.592226,0.4470158-1.3409805,0.7040138-2.1455288,0.7040138c-0.804615,0-1.5533028-0.2569981-2.1455956-0.7040138
			c-0.1899509-0.2122536-0.3464146-0.4469471-0.4693203-0.7039452c-0.2346249-0.4805717-0.0223026-1.0281239,0.4693203-1.2180748
			c0.4805737-0.1564617,0.9610786-0.2681828,1.4415817-0.3240414c0.2346268-0.0335579,0.4581337-0.0447426,0.6816425-0.0447426
			h0.0446739c0.2235088,0,0.4470177,0.0111847,0.6817112,0.0447426c0.480505,0.0558586,0.96101,0.1675797,1.441515,0.3240414
			C32.6402397,19.4531612,32.852562,20.0007133,32.6178665,20.4812851z"/><g><path fill="#D07C40" d="M45.1338234,25.0852661c-0.1006012,0.0558605-0.2012024,0.1005344-0.3017387,0.1340923
				l-0.6593399,0.2346249c-0.2569962-0.3128567-0.3799019-0.6816406-0.4693184-0.9721947l-0.0335579-0.1229057
				c-0.0893478-0.3017406-0.1787643-0.5363655-0.3240395-0.7151985c-0.0894165-0.111721-0.1675797-0.1899529-0.2569962-0.2569981
				c-0.2235107-0.145277-0.4805069-0.3129253-0.6034813-0.7151985c-0.0781631-0.335228-0.0223007-0.5475502,0.0111847-0.6816406
				c-0.0334854-0.1133575-0.0830727-0.2026768-0.1787643-0.2235088l-0.0223694-0.0334892
				c-0.1229057-0.0447426-0.3017426-0.1229744-0.446949-0.3352966c-0.1564636-0.3464127-0.1117897-0.5251789-0.0894165-0.625782
				c0.0223694-0.1563931,0.0446739-0.2569962,0.0670433-0.3575306c0.0334892-0.1341591,0.0782318-0.32411,0.0446739-0.368784
				c-0.0334854-0.0558605-0.1452751-0.1229057-0.2235069-0.1676483c-0.011116-0.0111866-0.0334892-0.0111866-0.0446739-0.0223045
				l1.0504265-0.3799706c0.3464127,0.4134598,0.3129272,0.8604755,0.2793694,1.1621475
				c0.2346916,0.0894165,0.4358292,0.2458801,0.5922928,0.4470158c0.2123222,0.3017406,0.3016701,0.6145973,0.2793694,0.9275227
				c-0.0111885,0.1005325-0.0223732,0.1899509-0.0335579,0.2569962c0.0223694,0.0223713,0.0558586,0.0446739,0.0894165,0.0782318
				c0.2123222,0.1675797,0.3687172,0.335228,0.4916916,0.5028763c0.3240395,0.4693184,0.4246445,0.9944973,0.4581337,1.2627487
				l0.0335541,0.1787663c0.0334892,0.2569962,0.0670471,0.480505,0.1675797,0.6369667
				C45.0444069,24.9846649,45.0778961,25.0405235,45.1338234,25.0852661z"/><path fill="#FFF" d="M45.0220375,25.1299419c-0.0558624,0.0446739-0.111721,0.0670452-0.1675797,0.0782299h-0.0111885
				c-0.178833-0.0446739-0.3575974-0.1564617-0.4805031-0.290554c-0.2570648-0.2681808-0.3352966-0.6145954-0.4246445-0.9051495
				c-0.100605-0.3017387-0.178833-0.5475502-0.3576012-0.7598724c-0.0894165-0.1006031-0.178833-0.1899509-0.2793655-0.2681828
				c-0.0782318-0.0782318-0.3241119-0.1564617-0.435833-0.4916897c-0.0558586-0.290554,0.0446739-0.4582024,0.0446739-0.5587368
				c0-0.0782318-0.0223007-0.1676483-0.0782318-0.2681828c-0.0446739-0.0782318-0.1340904-0.145277-0.2122536-0.178833
				c-0.0111847-0.0334892-0.2012024,0.0111847-0.3464813-0.2123241c-0.1005325-0.2123222-0.0446739-0.2905521-0.0334892-0.3799019
				c0.0558624-0.3352966,0.1787682-0.6034794,0.0558624-0.804615c-0.0558624-0.145277-0.257-0.2235088-0.435833-0.3240433
				l0.178833-0.0670452c0.1564636,0.0334892,0.3240433,0.0782318,0.4805069,0.2235088
				c0.290554,0.335228,0.1564636,0.7598724,0.1564636,1.0280552v0.0334892c0.0111847,0,0.0446739,0.0111847,0.078228,0.0223713
				c0.212326,0.0446739,0.4022751,0.1787643,0.5251808,0.3464127c0.1229057,0.1788349,0.2011375,0.3910885,0.1899529,0.625782
				c-0.0223045,0.2235088-0.0670471,0.3687859-0.0446739,0.3687859c0,0.0111847,0.0670433,0.0782299,0.2235069,0.1899509
				c0.1340904,0.1117878,0.2681808,0.2458782,0.3687859,0.3911552c0.2122536,0.301672,0.3128548,0.6704559,0.3575287,0.9833126
				c0.0559311,0.3129253,0.0782318,0.614666,0.2123222,0.8381062
				C44.6868095,24.9288044,44.8320847,25.0740814,45.0220375,25.1299419z"/></g><g><path fill="#D07C40" d="M14.8619242,25.0852661c0.1006031,0.0558605,0.2012053,0.1005344,0.3017397,0.1340923l0.659339,0.2346249
				c0.2569971-0.3128567,0.3799028-0.6816406,0.4693193-0.9721947l0.033556-0.1229057
				c0.0893497-0.3017406,0.1787663-0.5363655,0.3240433-0.7151985c0.0894165-0.111721,0.1675797-0.1899529,0.2569962-0.2569981
				c0.2235088-0.145277,0.480505-0.3129253,0.6034794-0.7151985c0.0781631-0.335228,0.0223026-0.5475502-0.0111866-0.6816406
				c0.0334892-0.1133575,0.0830746-0.2026768,0.1787663-0.2235088l0.0223713-0.0334892
				c0.1229057-0.0447426,0.3017387-0.1229744,0.446949-0.3352966c0.1564617-0.3464127,0.1117878-0.5251789,0.0894165-0.625782
				c-0.0223713-0.1563931-0.0446739-0.2569962-0.0670452-0.3575306c-0.0334892-0.1341591-0.0782318-0.32411-0.0446758-0.368784
				c0.0334892-0.0558605,0.145277-0.1229057,0.2235088-0.1676483c0.0111179-0.0111866,0.0334892-0.0111866,0.0446739-0.0223045
				l-1.0504265-0.3799706c-0.3464127,0.4134598-0.3129253,0.8604755-0.2793674,1.1621475
				c-0.2346935,0.0894165-0.4358311,0.2458801-0.5922928,0.4470158c-0.2123241,0.3017406-0.301672,0.6145973-0.2793694,0.9275227
				c0.0111866,0.1005325,0.0223713,0.1899509,0.0335579,0.2569962c-0.0223713,0.0223713-0.0558605,0.0446739-0.0894184,0.0782318
				c-0.2123213,0.1675797-0.3687162,0.335228-0.4916897,0.5028763c-0.3240423,0.4693184-0.4246454,0.9944973-0.4581337,1.2627487
				l-0.0335569,0.1787663c-0.0334883,0.2569962-0.0670452,0.480505-0.1675797,0.6369667
				C14.9513416,24.9846649,14.9178524,25.0405235,14.8619242,25.0852661z"/><path fill="#FFF" d="M14.9737129,25.1299419c0.0558596,0.0446739,0.1117201,0.0670452,0.1675797,0.0782299h0.0111856
				c0.178834-0.0446739,0.3575993-0.1564617,0.480505-0.290554c0.2570648-0.2681808,0.3352966-0.6145954,0.4246454-0.9051495
				c0.1006012-0.3017387,0.178833-0.5475502,0.3575993-0.7598724c0.0894165-0.1006031,0.178833-0.1899509,0.2793674-0.2681828
				c0.0782318-0.0782318,0.3241119-0.1564617,0.4358311-0.4916897c0.0558605-0.290554-0.0446739-0.4582024-0.0446739-0.5587368
				c0-0.0782318,0.0223026-0.1676483,0.0782299-0.2681828c0.0446758-0.0782318,0.1340923-0.145277,0.2122555-0.178833
				c0.0111847-0.0334892,0.2012043,0.0111847,0.3464813-0.2123241c0.1005344-0.2123222,0.0446739-0.2905521,0.0334892-0.3799019
				c-0.0558605-0.3352966-0.1787663-0.6034794-0.0558605-0.804615c0.0558605-0.145277,0.2569981-0.2235088,0.4358311-0.3240433
				l-0.178833-0.0670452c-0.1564636,0.0334892-0.3240433,0.0782318-0.480505,0.2235088
				c-0.290554,0.335228-0.1564636,0.7598724-0.1564636,1.0280552v0.0334892c-0.0111847,0-0.0446739,0.0111847-0.0782318,0.0223713
				c-0.2123222,0.0446739-0.4022732,0.1787643-0.5251789,0.3464127c-0.1229057,0.1788349-0.2011356,0.3910885-0.1899509,0.625782
				c0.0223026,0.2235088,0.0670452,0.3687859,0.0446739,0.3687859c0,0.0111847-0.0670452,0.0782299-0.2235069,0.1899509
				c-0.1340923,0.1117878-0.2681828,0.2458782-0.3687859,0.3911552c-0.2122545,0.301672-0.3128567,0.6704559-0.3575306,0.9833126
				c-0.0559282,0.3129253-0.0782318,0.614666-0.2123232,0.8381062
				C15.3089409,24.9288044,15.1636639,25.0740814,14.9737129,25.1299419z"/></g><g><path fill="#D07C40" d="M22.0021305,50.3624878l-0.6928272,1.0951004
					c-0.2123222-0.2011337-0.4693871-0.3910866-0.7151985-0.5811043c-0.033556-0.0223045-0.0894165-0.0670471-0.1117878-0.0782318
					c-0.1452084,0.067112-0.2681828,0.0894165-0.4134598,0.0894165c-0.6145954,0-1.0727291-0.3910904-1.4191437-1.1509628
					c-0.1676483-0.3687859-0.2458801-0.4582024-0.2793674-0.4693871c-0.0447426,0-0.0782318,0-0.1229744,0.0111847
					c-0.0781631,0.0111885-0.1675797,0.0111885-0.2569962,0.0111885c-0.1005344,0-0.2011375-0.0111885-0.290554-0.0223732
					c-0.5587368-0.1340904-0.8269196-0.5922241-1.0280552-0.9274521c-0.0558605-0.1117897-0.111721-0.1900215-0.1564636-0.2346954
					c-0.1787643,0.0782318-0.3575993,0.1340942-0.5587358,0.1340942c-0.0670452,0-0.1340914,0-0.2011366-0.0223732
					c-0.5139942-0.1005325-0.7151995-0.5028076-0.815733-0.8269196l0.8492899-1.3520966
					c0.1117191,0.1229057,0.1899509,0.2793694,0.2458105,0.4357605c0.0335579,0.1117897,0.0670452,0.2346954,0.0894165,0.3576012
					c0,0.0111847,0.0111866,0.0335579,0.0111866,0.0447426c0.1117191-0.0335579,0.2346249-0.0782318,0.3910885-0.0782318
					c0.7263832,0,1.0392399,0.5139923,1.2403774,0.8604088c0.0782318,0.1341591,0.1900196,0.3241081,0.2458801,0.3575974
					c0-0.0111847,0.0558586-0.0111847,0.1005344-0.0223007c0.0782299,0,0.1676464-0.0111885,0.2570648-0.0111885
					c0.0670452,0,0.1340904,0,0.2011356,0.0111885c0.7598743,0.1229057,1.0951023,0.860405,1.251564,1.2180061
					c0.111721,0.2570648,0.2123222,0.3687859,0.2458115,0.3911552c0.2012043-0.0447426,0.32411-0.0782318,0.4805737-0.0782318
					c0.0558586,0,0.1229057,0.0111847,0.1899509,0.0223045c0.290554,0.0447426,0.4916897,0.2012024,0.6145954,0.3017387
					C21.5662994,50.0048904,21.7898083,50.1724701,22.0021305,50.3624878z"/><path fill="#FFF" d="M21.7562523,50.7535782l-0.1787663,0.290554c-0.2570648-0.257-0.5475502-0.4805069-0.8381042-0.7040138
					c-0.0894165-0.0558624-0.178833-0.1340942-0.2681828-0.1452789c-0.0782318-0.0111847-0.1676483,0-0.2682514,0.0223732
					c-0.0893478,0.0223007-0.1787643,0.0446739-0.2904854,0.0446739c-0.5699215,0-0.8716602-0.6592712-0.9610767-0.8715935
					c-0.156395-0.3352966-0.335228-0.6928291-0.6368999-0.7375717c-0.0782318-0.0111847-0.1676483-0.0111847-0.2570648,0
					c-0.111721,0.0111885-0.2458115,0.0335579-0.3910885,0c-0.3464146-0.0894165-0.5475502-0.413456-0.7151985-0.70401
					c-0.1787663-0.3016739-0.3128567-0.4916916-0.5140629-0.4916916c0,0,0,0-0.011116,0
					c-0.0670452,0-0.1564636,0.0335579-0.2346935,0.0670433c-0.145277,0.0559311-0.290555,0.1229744-0.4693203,0.0894203
					c-0.3352957-0.0670471-0.4358301-0.3799057-0.5028763-0.6704597l0.2458115-0.3911552
					c0.0223713,0.0670471,0.0447426,0.1452789,0.0670452,0.2346954c0.0559282,0.290554,0.1117887,0.4581337,0.2570658,0.4916916
					c0.0782309,0.0223694,0.1675797-0.0223732,0.2793684-0.0670471c0.1005344-0.0335579,0.2123222-0.0894165,0.3464127-0.0894165
					c0.4022751-0.0334892,0.6369686,0.3464127,0.8269196,0.6593399c0.145277,0.2569962,0.290554,0.4916878,0.5028763,0.5475502
					c0.0782299,0.0111847,0.1787643,0,0.2793674-0.0111885c0.111721-0.0111847,0.2234402-0.0223694,0.335228,0
					c0.4693203,0.0670471,0.7151985,0.5251808,0.8939648,0.9387093c0.2011375,0.446949,0.4246445,0.6704559,0.659338,0.6704559
					c0.0670471,0,0.145277-0.0111847,0.2123241-0.0335579c0.1229038-0.0223045,0.2569962-0.0558586,0.4022732-0.0334892
					c0.1675797,0.0334892,0.3017387,0.1340904,0.4134598,0.2123222
					C21.2087002,50.2730713,21.4880695,50.4965782,21.7562523,50.7535782z"/></g><g><path fill="#D07C40" d="M37.993618,50.3624878l0.6928291,1.0951004
					c0.2123222-0.2011337,0.4693871-0.3910866,0.7151985-0.5811043c0.0335541-0.0223045,0.0894165-0.0670471,0.1117859-0.0782318
					c0.1452103,0.067112,0.2681847,0.0894165,0.4134598,0.0894165c0.6145973,0,1.072731-0.3910904,1.4191437-1.1509628
					c0.1676483-0.3687859,0.2458801-0.4582024,0.2793694-0.4693871c0.0447426,0,0.0782318,0,0.1229744,0.0111847
					c0.0781631,0.0111885,0.1675797,0.0111885,0.2569962,0.0111885c0.1005325,0,0.2011375-0.0111885,0.290554-0.0223732
					c0.5587349-0.1340904,0.8269196-0.5922241,1.0280533-0.9274521c0.0558624-0.1117897,0.111721-0.1900215,0.1564636-0.2346954
					c0.1787643,0.0782318,0.3576012,0.1340942,0.5587349,0.1340942c0.0670471,0,0.1340942,0,0.2011375-0.0223732
					c0.5139961-0.1005325,0.7151985-0.5028076,0.8157349-0.8269196l-0.8492889-1.3520966
					c-0.111721,0.1229057-0.1899529,0.2793694-0.2458115,0.4357605c-0.0335579,0.1117897-0.0670471,0.2346954-0.0894203,0.3576012
					c0,0.0111847-0.0111847,0.0335579-0.0111847,0.0447426c-0.1117172-0.0335579-0.234623-0.0782318-0.3910866-0.0782318
					c-0.7263832,0-1.0392418,0.5139923-1.2403793,0.8604088c-0.0782318,0.1341591-0.1900177,0.3241081-0.2458801,0.3575974
					c0-0.0111847-0.0558586-0.0111847-0.1005325-0.0223007c-0.0782318,0-0.1676483-0.0111885-0.2570648-0.0111885
					c-0.0670471,0-0.1340904,0-0.2011375,0.0111885c-0.7598724,0.1229057-1.0951004,0.860405-1.251564,1.2180061
					c-0.111721,0.2570648-0.2123222,0.3687859-0.2458115,0.3911552c-0.2012062-0.0447426-0.3241119-0.0782318-0.4805717-0.0782318
					c-0.0558624,0-0.1229057,0.0111847-0.1899529,0.0223045c-0.290554,0.0447426-0.4916916,0.2012024-0.6145973,0.3017387
					C38.4294472,50.0048904,38.2059402,50.1724701,37.993618,50.3624878z"/><path fill="#FFF" d="M38.2394981,50.7535782l0.1787643,0.290554c0.2570648-0.257,0.5475502-0.4805069,0.8381042-0.7040138
					c0.0894165-0.0558624,0.178833-0.1340942,0.2681847-0.1452789c0.078228-0.0111847,0.1676483,0,0.2682495,0.0223732
					c0.0893478,0.0223007,0.1787643,0.0446739,0.2904854,0.0446739c0.5699234,0,0.8716621-0.6592712,0.9610786-0.8715935
					c0.156395-0.3352966,0.335228-0.6928291,0.636898-0.7375717c0.0782318-0.0111847,0.1676483-0.0111847,0.2570648,0
					c0.111721,0.0111885,0.2458115,0.0335579,0.3910904,0c0.3464127-0.0894165,0.5475502-0.413456,0.7151985-0.70401
					c0.1787643-0.3016739,0.3128548-0.4916916,0.514061-0.4916916c0,0,0,0,0.011116,0
					c0.0670471,0,0.1564636,0.0335579,0.2346954,0.0670433c0.1452751,0.0559311,0.290554,0.1229744,0.4693184,0.0894203
					c0.3352966-0.0670471,0.4358292-0.3799057,0.5028763-0.6704597l-0.2458115-0.3911552
					c-0.0223694,0.0670471-0.0447426,0.1452789-0.0670433,0.2346954c-0.0559311,0.290554-0.1117897,0.4581337-0.2570648,0.4916916
					c-0.0782318,0.0223694-0.1675835-0.0223732-0.2793694-0.0670471c-0.1005363-0.0335579-0.2123222-0.0894165-0.3464127-0.0894165
					c-0.4022751-0.0334892-0.6369705,0.3464127-0.8269196,0.6593399c-0.1452789,0.2569962-0.290554,0.4916878-0.5028763,0.5475502
					c-0.0782318,0.0111847-0.1787682,0-0.2793694-0.0111885c-0.111721-0.0111847-0.2234383-0.0223694-0.335228,0
					c-0.4693184,0.0670471-0.7151985,0.5251808-0.8939629,0.9387093c-0.2011375,0.446949-0.4246445,0.6704559-0.6593399,0.6704559
					c-0.0670471,0-0.1452751-0.0111847-0.2123222-0.0335579c-0.1229057-0.0223045-0.2569962-0.0558586-0.4022751-0.0334892
					c-0.1675797,0.0334892-0.3017387,0.1340904-0.4134598,0.2123222
					C38.7870483,50.2730713,38.507679,50.4965782,38.2394981,50.7535782z"/></g><g><path fill="#308F7E" d="M38.6457939,36.1400757v0.7399902c-0.0800171-0.0100098-0.1599731-0.0200195-0.2399902-0.0299683
				c-0.2299805-0.0200195-0.5300293-0.0599976-0.789978-0.1700439c-0.1800537-0.0899658-0.3099976-0.1999512-0.4100342-0.2799683
				c-0.0700073-0.0800171-0.1199951-0.1199951-0.1799927-0.1400146c-0.0800171-0.0299683-0.289978-0.0499878-0.7199707,0.1300049
				c-0.4200439,0.1599731-0.9000244,0.3200073-1.4400024,0.210022c-0.2400513-0.0500488-0.4200439-0.1600342-0.5500488-0.2300415
				c-0.0499878-0.0299683-0.0899658-0.0499878-0.1399536-0.0799561c-0.2600098-0.1400146-0.6900024-0.1700439-1.0400391-0.1100464
				c-0.1699829,0.0400391-0.3299561,0.1000366-0.4899902,0.1500244c-0.1300049,0.0499878-0.25,0.0899658-0.3900146,0.1300049
				c-0.25,0.0700073-0.8800068,0.2199707-1.3999653,0c-0.1300049-0.0499878-0.2300415-0.1199951-0.3099976-0.1799927
				c-0.4000244-0.25-1.1000366-0.2900391-1.5100098-0.1300049c-0.1199951,0.0499878-0.2299805,0.1199951-0.3400269,0.1799927
				c-0.2999878,0.1599731-0.6699829,0.3699951-1.1900024,0.3699951c-0.4199829,0-0.7600098-0.1400146-1.0299683-0.25
				l-0.2000122-0.0700073c-0.6400146-0.25-1.6099854-0.2399902-2.2399902,0.0100098
				c-0.0800171,0.0299683-0.1600342,0.0499878-0.2299805,0.0900269c-0.210022,0.0999756-0.460022,0.2099609-0.7800293,0.2599487
				c-0.4400024,0.0599976-0.8400269,0-1.2199707-0.0499878c-0.1500244-0.0200195-0.3000488-0.039978-0.4500122-0.0599976v-0.789978
				c0.2099609,0.0499878,0.4299927,0.1099854,0.6300049,0.1400146c0.2999878,0.039978,0.5999756,0.0899658,0.8499756,0.0499878
				c0.1799927-0.0300293,0.3200073-0.1000366,0.5100098-0.1700439c0.0899658-0.039978,0.1699829-0.0799561,0.2700195-0.1199951
				c0.8899536-0.3599854,2.1599731-0.3599854,3.0699463-0.0199585l0.2400513,0.0999756
				c0.2099609,0.0800171,0.3899536,0.1600342,0.5799561,0.1600342c0.210022-0.1600342,0.3099976-0.1800537,0.3800049-0.1800537
				c0.0800171,0,0.1400146,0.0200195,0.2600098-0.0599976c0.1500244-0.0799561,0.2999878-0.1599731,0.4700317-0.2299805
				c0.7299805-0.2999878,1.8299561-0.2199707,2.4400024,0.1599731l0.0999756,0.0700073
				c0.0599976,0.0400391,0.0999756,0.0700073,0.1400146,0.0800171c0.1199951,0.039978,0.3800049,0.039978,0.6399536-0.039978
				c0.1100483-0.0300293,0.2100239-0.0700073,0.3200092-0.1100464c0.210022-0.0799561,0.4200439-0.1399536,0.6600342-0.1899414
				c0.5899658-0.1200562,1.289978-0.0400391,1.7699585,0.1999512c0.0599976,0.0300293,0.1200562,0.0700073,0.1800537,0.1100464
				c0.0999756,0.0599976,0.1799927,0.0899658,0.25,0.1099854c0.2099609,0.0499878,0.5099487-0.0499878,0.7699585-0.1600342
				c0.5900269-0.2299805,1.0900269-0.2799683,1.4800415-0.1599731c0.2799683,0.0899658,0.4400024,0.2399902,0.5499878,0.3399658
				c0.0700073,0.0600586,0.1199951,0.1100464,0.1699829,0.1300049c0.0999756,0.0500488,0.2999878,0.0700073,0.4500122,0.0900269
				H38.6457939z"/><path fill="#3DB39E" d="M38.7557793,37.3900757c-0.1199951-0.0100098-0.2399902-0.0200195-0.3499756-0.0300293
			c-0.2299805-0.0299683-0.5300293-0.0599976-0.789978-0.1799927c-0.1800537-0.0799561-0.3099976-0.1999512-0.4100342-0.2799683
			c-0.0700073-0.0800171-0.1199951-0.1199951-0.1799927-0.1400146c-0.0800171-0.0200195-0.289978-0.039978-0.7199707,0.1400146
			c-0.4200439,0.1499634-0.9000244,0.3200073-1.4400024,0.2099609c-0.2400513-0.0599976-0.4200439-0.1499634-0.5500488-0.2399902
			c-0.0499878-0.0199585-0.0899658-0.0499878-0.1399536-0.0700073c-0.2600098-0.1300049-0.6900024-0.1799927-1.0400391-0.1099854
			c-0.1699829,0.0300293-0.3299561,0.0900269-0.4899902,0.1500244c-0.1300049,0.0499878-0.25,0.0899658-0.3900146,0.1300049
			c-0.25,0.0700073-0.8800068,0.2099609-1.3999653,0c-0.1300049-0.0599976-0.2300415-0.1300049-0.3099976-0.1900024
			c-0.4000244-0.25-1.1000366-0.2900391-1.5100098-0.1199951c-0.1199951,0.039978-0.2299805,0.1099854-0.3400269,0.1799927
			c-0.2999878,0.1599731-0.6699829,0.3699951-1.1900024,0.3699951c-0.4199829,0-0.7600098-0.1400146-1.0299683-0.25
			l-0.2000122-0.0800171c-0.6400146-0.2399902-1.6099854-0.2399902-2.2399902,0.0100098
			c-0.0800171,0.0299683-0.1600342,0.0700073-0.2299805,0.0900269c-0.210022,0.0999756-0.460022,0.2199707-0.7800293,0.2699585
			c-0.4400024,0.0599976-0.8400269,0-1.2199707-0.0499878c-0.1500244-0.0200195-0.3000488-0.0499878-0.4500122-0.0599976v-0.7200317
			c0.2099609,0.0100098,0.4199829,0.0300293,0.6300049,0.0600586c0.2999878,0.0499878,0.5999756,0.0999756,0.8499756,0.0599976
			c0.1799927-0.0300293,0.3200073-0.1000366,0.5100098-0.1800537c0.0899658-0.039978,0.1699829-0.0799561,0.2700195-0.1199951
			c0.8899536-0.3499756,2.1599731-0.3599854,3.0699463-0.0199585l0.2400513,0.0999756
			c0.2099609,0.0900269,0.3899536,0.1600342,0.5799561,0.1600342c0.210022-0.1500244,0.3000488-0.1800537,0.3800049-0.1800537
			c0.0800171,0,0.1300049,0.0300293,0.2600098-0.0499878c0.1500244-0.0899658,0.2999878-0.1699829,0.4700317-0.2399902
			c0.7299805-0.289978,1.8299561-0.2199707,2.4400024,0.1599731l0.0999756,0.0700073
			c0.0599976,0.0400391,0.0999756,0.0700073,0.1400146,0.0900269c0.1199951,0.0499878,0.3800049,0.0299683,0.6399536-0.039978
			c0.1100483-0.0300293,0.2100239-0.0700073,0.3200092-0.1100464c0.210022-0.0700073,0.4200439-0.1499634,0.6600342-0.1900024
			c0.5899658-0.1300049,1.289978-0.039978,1.7699585,0.1900024c0.0599976,0.0400391,0.1200562,0.0700073,0.1800537,0.1100464
			c0.0999756,0.0699463,0.1799927,0.1099854,0.25,0.1199951c0.2099609,0.039978,0.5099487-0.0599976,0.7699585-0.1700439
			c0.5900269-0.2199707,1.0900269-0.2799683,1.4800415-0.1399536c0.2799683,0.0699463,0.4400024,0.2199707,0.5499878,0.3199463
			c0.0700073,0.0600586,0.1199951,0.1100464,0.1699829,0.1400146c0.0999756,0.0400391,0.2999878,0.0700073,0.4500122,0.0800171
			c0.039978,0,0.0700073,0.0100098,0.1099854,0.0100098v0.5700073L38.7557793,37.3900757z"/></g><g><path fill="#E2574D" d="M30.0029984,26.8927708c-0.6291237,0-1.1390934,0.5099697-1.1390934,1.1390934
			s0.5099697,1.1391621,1.1390934,1.1391621c0.6291256,0,1.1391621-0.5100384,1.1391621-1.1391621
			S30.6321239,26.8927708,30.0029984,26.8927708z"/><path fill="#BF392B" d="M30.0030079,26.8927708c-0.472517,0-0.8555393,0.3830223-0.8555393,0.8555393
			c0,0.4725151,0.3830223,0.8555908,0.8555393,0.8555908s0.8555908-0.3830757,0.8555908-0.8555908
			C30.8585987,27.2757931,30.4755249,26.8927708,30.0030079,26.8927708z"/></g><g><path fill="#E2574D" d="M30.0029984,31.5023441c-0.6291237,0-1.1390934,0.5099697-1.1390934,1.1390934
			s0.5099697,1.1391602,1.1390934,1.1391602c0.6291256,0,1.1391621-0.5100365,1.1391621-1.1391602
			S30.6321239,31.5023441,30.0029984,31.5023441z"/><path fill="#BF392B" d="M30.0030079,31.5023441c-0.472517,0-0.8555393,0.3830223-0.8555393,0.8555393
			c0,0.4725151,0.3830223,0.8555908,0.8555393,0.8555908s0.8555908-0.3830757,0.8555908-0.8555908
			C30.8585987,31.8853664,30.4755249,31.5023441,30.0030079,31.5023441z"/></g></svg>